# xmcd CD database file
#
# Track frame offsets:
#	150
#	11493
#	22789
#	36425
#	51540
#	66116
#	80390
#	94329
#	107659
#	122178
#	136609
#	149410
#	162587
#	175210
#	190068
#	200690
#	212327
#	226607
#	240930
#	254428
#	269519
#
# Disc length: 3772 seconds
#
# Revision: 1
# Processed by: cddbd v1.5.2PL0 Copyright (c) Steve Scherf et al.
# Submitted via: CDex 1.70beta2
#
DISCID=220eba15
DTITLE=Johnny Dodds - Giants of Jazz [CD1]
DYEAR=1900
DGENRE=Jazz
TTITLE0=Canal Street Blues: King Oliver’s Creole Jazz Band
TTITLE1=Dipper Mouth Blues: King Oliver’s Creole Jazz Band 
TTITLE2=Snake Rag: King Oliver’s Creole Jazz Band
TTITLE3=Sobbin’ Blues: King Oliver’s Jazz Band
TTITLE4=Lonesome Blues: Louis Armstrong and His Hot Five 
TTITLE5=Perdido Street Blues: New Orleans Wanderers 
TTITLE6=Gate Mouth: New Orleans Wanderers
TTITLE7=Too Tight: New Orleans Wanderers 
TTITLE8=Mixed Salad: New Orleans Bootblacks 
TTITLE9=I Can’t Say: New Orleans Bootblacks
TTITLE10=Mad Dog: New Orleans Bootblacks 
TTITLE11=Someday Sweetheart: King Oliver and His Dixie Syncopators 
TTITLE12=Salty Dog: Freddie Keppard’s Jazz Cardinals
TTITLE13=Skid‑Dat‑De‑Dat: Louis Armstrong and His Hot Five
TTITLE14=Oh Daddy: Dodds and Parham 
TTITLE15=The Blues Stampede: Jimmy Bertrand’s Washboard Wizards
TTITLE16=Wild Man Blues: Johnny Dodds’ Black Bottom Stompers 
TTITLE17=Melancholy: Johnny Dodds’ Black Bottom Stompers 
TTITLE18=S. O. L. Blues: Louis Armstrong and His Hot Seven
TTITLE19=Wolverine Blues: Jelly-Roll Morton-Piano Solo with Clarinet and Traps 
TTITLE20=Come On And Stomp Stomp Stomp: Johnny Dodds’ Black Bottom Stompers 
EXTD=
EXTT0=
EXTT1=
EXTT2=
EXTT3=
EXTT4=
EXTT5=
EXTT6=
EXTT7=
EXTT8=
EXTT9=
EXTT10=
EXTT11=
EXTT12=
EXTT13=
EXTT14=
EXTT15=
EXTT16=
EXTT17=
EXTT18=
EXTT19=
EXTT20=
PLAYORDER=
